<svg xmlns="http://www.w3.org/2000/svg" viewBox="0 0 512 512" fill="none">
  <defs>
    <linearGradient id="bg" x1="38" y1="32" x2="474" y2="480" gradientUnits="userSpaceOnUse">
      <stop stop-color="#12D8CA" />
      <stop offset="0.55" stop-color="#2C9DFF" />
      <stop offset="1" stop-color="#FF7A59" />
    </linearGradient>
    <linearGradient id="ring" x1="128" y1="112" x2="394" y2="402" gradientUnits="userSpaceOnUse">
      <stop stop-color="#F8FBFF" />
      <stop offset="1" stop-color="#DCE7FF" stop-opacity="0.9" />
    </linearGradient>
    <linearGradient id="wave" x1="96" y1="262" x2="418" y2="262" gradientUnits="userSpaceOnUse">
      <stop stop-color="#FFD166" />
      <stop offset="1" stop-color="#FF9D5C" />
    </linearGradient>
  </defs>
  <rect width="512" height="512" rx="104" fill="url(#bg)" />
  <rect x="18" y="18" width="476" height="476" rx="92" fill="black" fill-opacity="0.08" />
  <path
    d="M158 130h126c67 0 122 55 122 122s-55 122-122 122h-66v62c0 19-15 34-34 34s-34-15-34-34V164c0-19 15-34 34-34Z"
    fill="url(#ring)"
  />
  <path d="M218 190v124h64c34 0 62-28 62-62s-28-62-62-62h-64Z" fill="#0C1524" fill-opacity="0.72" />
  <path
    d="M94 270c30-21 62-31 96-31 34 0 63 10 91 20 24 9 46 17 70 17 24 0 46-8 71-22l1 43c-24 14-48 21-73 21-32 0-60-10-85-19-24-9-45-17-69-17-24 0-47 8-71 24l-31-36Z"
    fill="url(#wave)"
    fill-opacity="0.96"
  />
</svg>
